<?xml version="1.0" encoding="UTF-8"?>
<svg width="374px" height="160px" viewBox="0 0 374 160" version="1.1" xmlns="http://www.w3.org/2000/svg" xmlns:xlink="http://www.w3.org/1999/xlink">
    <!-- Generator: Sketch 47 (45396) - http://www.bohemiancoding.com/sketch -->
    <title>Group</title>
    <desc>Created with Sketch.</desc>
    <defs>
        <polygon id="path-1" points="34.5691085 42 0.000185865611 42 0.000185865611 0.955859075 34.5691085 0.955859075 34.5691085 42"></polygon>
        <polygon id="path-3" points="34.5691085 42 0.000185865611 42 0.000185865611 0.955859075 34.5691085 0.955859075 34.5691085 42"></polygon>
    </defs>
    <g id="Design" stroke="none" stroke-width="1" fill="none" fill-rule="evenodd">
        <g id="Desktop-Home-Copy-4" transform="translate(-67.000000, -30.000000)">
            <g id="Group" transform="translate(67.000000, 30.000000)">
                <g id="Page-1" transform="translate(0.000000, 7.000000)">
                    <path d="M263.6409,15.9313 C259.6039,17.8063 258.4239,20.1423 258.4229,23.5723 C258.4219,29.8923 257.8999,36.2123 257.8589,42.5343 C257.8399,45.4633 256.9039,46.7243 253.9389,46.0923 C253.7859,46.0593 253.6219,46.0793 253.4649,46.0693 C244.7069,45.4963 244.5349,45.2203 244.7059,36.6363 C244.8799,27.9373 244.9039,19.2343 244.9089,10.5323 C244.9119,5.8173 244.9969,5.6543 249.5669,5.7693 C250.6739,5.7973 251.7829,5.7843 252.8909,5.7753 C255.6679,5.7513 257.9979,6.3683 258.2989,10.2663 C261.3229,7.2483 262.6969,2.2023 267.4159,3.3483 C270.9179,4.1993 274.0529,6.5603 277.6339,8.3933 C278.0879,7.6193 278.7449,6.3963 279.4999,5.2383 C281.4329,2.2723 283.3469,-0.7387 287.7029,0.1633 C292.3279,1.1213 297.0899,5.1493 297.0989,9.0543 C297.1219,18.5333 296.7089,28.0143 296.4349,37.4933 C296.4179,38.0843 296.0769,39.1803 295.9099,39.1763 C292.5649,39.0873 289.1649,39.1633 285.9149,38.5133 C284.8709,38.3043 283.5369,36.1253 283.5119,34.8243 C283.3939,28.8273 283.7259,22.8233 283.8109,16.8213 C283.8279,15.6473 283.4649,14.4683 283.2129,12.8873 C279.4339,14.2173 278.0769,16.5253 277.9649,19.8223 C277.7569,25.9853 277.5709,32.1493 277.2409,38.3063 C276.9739,43.2923 276.4729,43.6223 271.4329,42.9543 C270.3359,42.8083 269.2549,42.5503 268.1569,42.4213 C264.5869,42.0023 263.5509,40.0333 263.8319,36.5343 C264.2609,31.1833 264.2529,25.7953 264.3229,20.4223 C264.3399,19.1103 263.9379,17.7923 263.6409,15.9313" id="Fill-1" fill="#FFFFFF"></path>
                    <path d="M160.5862,97.7766 C160.4062,94.5536 160.4352,91.8766 160.0592,89.2566 C159.6962,86.7336 157.5172,85.8516 155.9662,87.4716 C154.1422,89.3796 152.6962,92.0986 152.2392,94.6706 C152.0222,95.8916 154.2262,97.9996 155.7912,98.9686 C157.9032,100.2766 160.4482,100.8916 162.8202,101.7716 C171.2102,104.8866 173.7942,108.2046 173.4272,115.4276 C173.1152,121.5716 167.6752,128.1646 161.3582,129.8616 C155.6422,131.3986 150.0232,130.7026 144.6312,128.4796 C140.4392,126.7516 138.5882,122.9896 137.6002,118.9006 C137.3612,117.9116 138.2932,116.2466 139.1892,115.4756 C140.3372,114.4866 142.0602,114.1996 143.4192,113.4096 C146.1372,111.8296 147.9982,112.3216 149.6392,115.1146 C151.1742,117.7276 153.6312,119.3556 156.8232,118.4896 C158.0232,118.1646 158.9782,116.9386 160.0442,116.1226 C159.2412,115.0826 158.5812,113.8666 157.5892,113.0576 C156.7742,112.3926 155.5742,112.1886 154.5302,111.8196 C153.1892,111.3466 151.8202,110.9486 150.4862,110.4566 C135.9212,105.0886 133.2882,89.3726 145.3752,79.3986 C147.0072,78.0516 149.1892,76.9836 151.2602,76.6276 C157.5462,75.5476 163.5822,76.8216 169.0842,79.9916 C173.9242,82.7806 175.4792,89.9066 172.4352,94.5466 C171.9552,95.2776 171.0462,96.0076 170.2192,96.1806 C167.1712,96.8186 164.0742,97.2206 160.5862,97.7766" id="Fill-3" fill="#FFFFFF"></path>
                    <path d="M338.8192,103.6369 C350.8992,102.9049 352.7572,101.5279 352.2902,93.9079 C352.0232,93.9279 351.6142,93.8419 351.5092,93.9829 C349.3192,96.8919 347.4132,100.3119 342.8442,99.1379 C337.8032,97.8429 333.6302,95.2039 332.3822,89.8919 C330.2792,80.9389 331.2562,71.9519 333.0422,63.0389 C333.1322,62.5859 333.3962,61.7749 333.5422,61.7829 C336.8762,61.9699 340.2172,62.1429 343.5292,62.5449 C345.8432,62.8249 345.9462,64.6279 345.7932,66.5089 C345.4212,71.0819 345.0012,75.6549 344.8042,80.2369 C344.7122,82.4009 345.0892,84.5859 345.2622,86.8769 C349.6562,85.2639 351.3572,82.5999 351.6092,77.7619 C351.8872,72.3989 352.3182,67.0439 352.6162,61.6819 C352.8092,58.2279 354.4112,56.8479 357.8762,57.6669 C360.1722,58.2099 362.5132,58.5559 365.3262,59.0819 C365.4182,61.8719 365.6332,64.5219 365.5702,67.1649 C365.3592,76.0269 365.1372,84.8889 364.7242,93.7419 C364.5852,96.7179 364.1982,99.7659 363.3472,102.6079 C360.2182,113.0509 350.2532,117.4939 340.3172,112.8949 C339.2152,112.3849 338.1082,110.7079 338.0042,109.4879 C337.8382,107.5439 338.5142,105.5289 338.8192,103.6369" id="Fill-5" fill="#FFFFFF"></path>
                    <path d="M269.3812,100.2658 C271.1912,98.4378 273.6892,97.0988 274.0032,95.3658 C274.8212,90.8488 274.6822,86.1578 274.9292,81.4418 C268.1752,82.0218 265.6132,90.9098 269.3812,100.2658 M276.3122,104.2638 C275.4332,105.7558 274.6932,107.1038 273.8672,108.3978 C270.9102,113.0358 268.5602,113.7578 263.5052,111.4748 C258.3402,109.1418 255.2692,104.9998 254.4112,99.5248 C253.4192,93.2028 253.8262,86.8958 256.2812,80.8618 C259.5402,72.8518 263.9082,70.3788 272.4942,71.6108 C273.2342,71.7168 274.0032,71.6118 275.0062,71.6028 C275.6992,66.9218 276.5712,62.4498 276.9642,57.9348 C277.2642,54.4838 279.0362,53.7948 282.0262,54.0318 C291.0642,54.7498 290.7282,54.6848 290.1592,63.7368 C289.2972,77.4438 288.9692,91.1838 288.3962,104.9098 C288.3382,106.2968 288.1492,107.6778 288.0272,108.9948 C280.1112,109.8218 278.7992,109.3028 276.3122,104.2638" id="Fill-7" fill="#FFFFFF"></path>
                    <path d="M126.178,35.3527 C126.161,32.5237 126.406,30.1517 126.036,27.8797 C125.817,26.5297 124.887,24.8757 123.775,24.2537 C123.152,23.9047 121.029,25.0787 120.4,26.0807 C115.576,33.7577 114.446,42.0497 117.503,50.6137 C118.797,54.2367 122.518,55.3297 126.256,53.4267 C129.176,51.9407 131.825,49.9217 135.248,47.7187 C136.614,50.4437 138.024,53.0167 139.167,55.7027 C139.471,56.4167 139.261,57.7097 138.775,58.3447 C134.686,63.6787 129.905,67.8767 122.541,67.3777 C110.75,66.5787 104.34,60.8047 102.571,49.0477 C101.087,39.1917 102.442,29.7387 107.915,21.2437 C112.667,13.8667 118.213,11.8537 126.656,14.0407 C128.785,14.5927 130.864,15.3907 132.907,16.2227 C140.243,19.2107 140.116,24.6487 138.238,31.7407 C138.017,32.5767 136.795,33.5237 135.882,33.7297 C132.835,34.4157 129.717,34.7887 126.178,35.3527" id="Fill-9" fill="#FFFFFF"></path>
                    <path d="M225.888,20.9157 C219.102,21.7667 216.674,30.5287 220.449,39.8147 C222.257,37.9757 224.794,36.6037 225.102,34.8427 C225.891,30.3337 225.689,25.6517 225.888,20.9157 M227.442,43.4547 C226.769,44.8487 226.454,45.5717 226.081,46.2637 C222.37,53.1447 217.648,54.1057 211.493,49.2207 C206.588,45.3267 204.796,39.9807 205.346,34.0437 C205.805,29.0757 206.516,23.9717 208.187,19.3117 C210.534,12.7707 215.833,9.6667 222.728,10.4767 C227.689,11.0597 232.574,12.5187 237.388,13.9397 C238.499,14.2687 239.94,16.0407 239.944,17.1537 C239.978,27.5447 239.732,37.9367 239.558,48.8407 C235.241,48.2327 229.65,50.9627 227.442,43.4547" id="Fill-11" fill="#FFFFFF"></path>
                    <path d="M102.3074,125.9933 C107.9524,123.9453 110.1664,115.1663 107.1364,107.8833 C101.3804,109.1353 99.2274,116.8903 102.3074,125.9933 M122.5484,136.2723 C117.7474,134.7963 111.7954,138.2303 110.0044,130.3893 C109.1134,132.0023 108.4784,133.2293 107.7714,134.4153 C104.6824,139.5983 101.7304,140.5103 96.3204,137.7833 C91.7964,135.5023 88.8764,131.7393 88.0654,126.8063 C86.8934,119.6783 87.4224,112.6053 90.5404,105.9373 C93.4084,99.8073 98.2304,96.6883 104.9434,97.4773 C109.9054,98.0603 114.7494,99.6433 119.6464,100.7773 C121.6364,101.2383 122.5174,102.4113 122.4034,104.5163 C122.1224,109.7183 121.7824,114.9263 121.7994,120.1313 C121.8144,125.1643 122.2464,130.1963 122.5484,136.2723" id="Fill-13" fill="#FFFFFF"></path>
                    <path d="M313.2757,75.1896 C306.4637,76.1276 304.0437,84.9366 307.8547,94.1336 C309.6557,92.2876 312.1907,90.9056 312.4997,89.1346 C313.2867,84.6246 313.0797,79.9406 313.2757,75.1896 M327.0387,103.4196 C322.8217,102.1236 316.8917,105.5086 315.0587,97.7626 C314.2767,99.1646 313.6927,100.2356 313.0857,101.2946 C309.7597,107.0956 306.3017,108.0806 300.5607,104.6816 C296.5467,102.3046 293.8537,98.7416 293.1227,94.1536 C291.9587,86.8486 292.4077,79.5846 295.8127,72.8636 C298.6967,67.1696 303.3017,63.7356 309.9717,64.7576 C314.9267,65.5166 319.7787,66.9476 324.6767,68.0816 C326.6497,68.5376 327.4827,69.6866 327.4757,71.8006 C327.4427,81.7416 327.5427,91.6826 327.5687,101.6246 C327.5707,102.0646 327.3177,102.5056 327.0387,103.4196" id="Fill-15" fill="#FFFFFF"></path>
                    <path d="M53.0384,111.7683 C53.4154,111.0963 53.7564,110.4013 54.1744,109.7553 C57.3634,104.8203 59.9354,103.3533 63.6364,104.3323 C68.7214,105.6783 72.3524,109.7683 72.3364,114.8103 C72.3084,123.1783 72.0984,131.5503 71.7104,139.9093 C71.4964,144.5123 71.1634,144.5793 66.5014,144.0283 C58.5514,143.0893 58.4344,142.8243 58.7264,134.6953 C58.9294,129.0683 58.7894,123.4283 58.8034,117.1793 C54.4084,118.7143 52.5054,120.9703 52.3584,124.6893 C52.1144,130.8453 51.8654,137.0003 51.5684,143.1533 C51.5034,144.5023 51.2294,145.8413 51.0614,147.1073 C38.8454,147.3703 38.8474,147.3703 38.7834,135.8513 C38.7354,127.3173 38.7564,118.7813 38.5834,110.2493 C38.5334,107.7803 39.4164,106.6803 41.8234,106.7573 C42.7724,106.7883 43.7324,107.0073 44.6634,106.9123 C48.4834,106.5243 51.6404,107.1293 53.0384,111.7683" id="Fill-17" fill="#FFFFFF"></path>
                    <path d="M235.7943,88.7311 C232.0623,90.8181 230.1223,93.0431 230.0823,96.8771 C230.0163,103.0341 229.6583,109.1891 229.3773,115.3421 C229.3293,116.4061 229.0543,117.4601 228.8363,118.8191 C227.7383,118.8371 226.8433,118.8991 225.9533,118.8591 C216.2763,118.4231 216.3823,118.4201 216.5043,108.8861 C216.6173,100.0371 216.6003,91.1811 216.3723,82.3351 C216.2953,79.3661 217.2853,78.2011 220.1313,78.4191 C220.9203,78.4811 221.7253,78.6701 222.4963,78.5751 C226.3803,78.0971 229.4153,78.9231 230.0533,84.2211 C231.2773,82.4151 232.0403,81.3141 232.7773,80.1991 C234.7283,77.2481 237.1013,75.0971 240.9993,75.8961 C245.1653,76.7491 250.0283,80.9681 250.0343,84.6211 C250.0493,94.2501 249.6273,103.8791 249.3383,113.5081 C249.3213,114.0861 248.9273,115.1601 248.7433,115.1521 C245.3823,115.0171 241.9643,115.0421 238.7083,114.3411 C237.6773,114.1191 236.4343,111.8981 236.3993,110.5631 C236.2413,104.5711 236.5173,98.5701 236.5493,92.5711 C236.5543,91.5091 236.1453,90.4451 235.7943,88.7311" id="Fill-19" fill="#FFFFFF"></path>
                    <path d="M199.0306,115.8493 C198.1016,117.5663 197.3476,119.0753 196.4896,120.5223 C193.5026,125.5543 190.0586,126.4223 184.9406,123.4713 C180.8646,121.1203 177.7746,117.8093 177.7476,112.9813 C177.7036,104.9473 178.1996,96.9083 178.5256,88.8733 C178.6396,86.0603 179.9646,85.2453 182.9096,85.6823 C191.7626,86.9943 191.6406,86.8393 190.9476,95.4193 C190.5216,100.6853 190.6176,105.9923 190.4586,112.0823 C195.7796,109.5073 197.1276,105.9763 197.3116,101.6023 C197.5386,96.2383 198.0326,90.8853 198.2956,85.5213 C198.4266,82.8463 199.8226,81.8033 202.2836,82.0983 C205.3706,82.4673 208.4366,83.0103 211.3086,83.4473 C211.1816,93.0273 211.0076,101.9923 210.9776,110.9573 C210.9696,113.6383 211.5766,116.3283 211.4716,118.9983 C211.4326,119.9963 210.2976,121.6423 209.4396,121.8033 C204.3306,122.7583 201.2116,120.9313 199.0306,115.8493" id="Fill-21" fill="#FFFFFF"></path>
                    <g id="Group-25" transform="translate(0.000000, 110.379000)">
                        <mask id="mask-2" fill="white">
                            <use xlink:href="#path-1"></use>
                        </mask>
                        <g id="Clip-24"></g>
                        <path d="M21.7098,16.1051 C21.4738,16.0671 21.2388,16.0291 21.0028,15.9921 C20.9038,15.3681 20.9798,14.6351 20.6708,14.1441 C19.8988,12.9161 18.9528,11.7981 18.0768,10.6361 C17.0728,11.7211 15.3878,12.6931 15.1858,13.9121 C14.4168,18.5251 13.9388,23.2131 13.7968,27.8861 C13.7628,29.0351 15.4128,30.2341 16.2888,31.4101 C17.4108,30.4581 19.2368,29.6821 19.5258,28.5221 C20.5398,24.4541 21.0238,20.2541 21.7098,16.1051 M0.2158,27.0581 C-0.4612,20.3901 0.3718,13.7081 3.9208,7.5851 C6.8218,2.5841 11.0418,0.3081 17.0118,1.1151 C30.7298,2.9691 35.4438,8.5971 34.4388,22.4681 C34.3138,24.1921 33.9438,25.9071 33.5848,27.6051 C30.2798,43.1911 18.1328,44.6431 6.6228,38.9351 C2.0088,36.6471 0.9978,31.9561 0.2158,27.0581" id="Fill-23" fill="#FFFFFF" mask="url(#mask-2)"></path>
                    </g>
                    <path d="M188.7503,24.6642 C185.1663,26.5632 183.8733,29.6892 184.8213,34.1642 C189.6613,32.5482 190.9913,29.3312 188.7503,24.6642 M184.1253,41.5702 C186.5053,46.2812 186.6233,46.2792 197.1993,41.9222 C202.4533,47.1852 202.0073,50.0382 196.3633,54.3532 C188.4313,60.4182 172.0513,55.6762 170.8333,43.8132 C170.1003,36.6652 170.4863,29.9382 173.7123,23.5302 C176.9233,17.1532 181.1063,15.0812 188.0223,16.3272 C190.1873,16.7172 192.3333,17.3682 194.3933,18.1512 C202.7423,21.3232 204.6833,29.6022 198.1463,35.7942 C195.6543,38.1552 191.9593,39.3002 188.7123,40.7802 C187.4923,41.3362 185.9883,41.2722 184.1253,41.5702" id="Fill-26" fill="#FFFFFF"></path>
                    <path d="M74.2078,42.7829 C70.3198,45.0069 69.0468,48.2129 70.1268,52.5009 C74.8118,50.7409 75.9548,48.1889 74.2078,42.7829 M69.2748,59.8789 C71.7948,64.3529 71.7948,64.3529 82.7658,60.1769 C84.8188,62.5389 86.8468,65.0859 85.8888,68.4839 C85.0528,71.4519 77.4488,75.5759 73.5328,75.3869 C65.2088,74.9859 56.8118,72.0389 55.7898,59.6389 C55.2388,52.9649 56.2318,46.7089 59.4508,40.8799 C62.1428,36.0059 66.1648,33.3449 71.9668,34.5039 C74.5878,35.0269 77.2498,35.5639 79.7378,36.5059 C87.8988,39.5949 89.8938,47.6779 83.6218,53.8169 C81.0728,56.3119 77.2068,57.5169 73.8388,59.0919 C72.6308,59.6569 71.1248,59.5839 69.2748,59.8789" id="Fill-28" fill="#FFFFFF"></path>
                    <path d="M42.3279,58.0524 C41.8269,54.9064 41.3739,52.0654 40.9209,49.2244 C40.5819,49.1044 40.2439,48.9844 39.9049,48.8644 C39.0909,50.0394 37.8009,51.1244 37.5529,52.4094 C36.8419,56.0934 36.0779,59.8764 36.2199,63.5864 C36.3909,68.0714 38.8519,69.3464 43.0119,67.8554 C43.7489,67.5904 44.3909,67.0564 45.1299,66.8004 C47.2449,66.0674 49.3149,63.2714 51.4429,67.0874 C53.8269,71.3634 53.7969,73.5074 50.7419,76.2734 C45.4749,81.0424 39.5089,81.6014 33.0599,79.3174 C27.0789,77.1984 23.9749,72.8474 23.0919,66.6374 C22.0069,59.0124 22.9049,51.8004 27.1459,45.2314 C29.9829,40.8374 33.9329,38.6294 39.2489,39.8554 C42.3149,40.5624 45.4529,41.2444 48.3079,42.5054 C52.5839,44.3944 53.7669,46.9494 53.1219,51.2004 C52.3719,56.1364 51.5079,56.9634 46.0499,57.7774 C44.8419,57.9574 43.6069,57.9624 42.3279,58.0524" id="Fill-30" fill="#FFFFFF"></path>
                    <path d="M18.1287,83.9562 C6.1217,84.6562 5.4837,84.6072 5.3047,73.9022 C5.0907,61.1532 5.8177,48.3762 6.4627,35.6282 C6.7077,30.8032 7.2797,30.6962 12.1027,31.2192 C22.4477,32.3392 20.0407,31.6872 19.6237,40.3062 C19.0057,53.0592 18.7457,65.8292 18.3307,78.5922 C18.2747,80.2972 18.2027,82.0012 18.1287,83.9562" id="Fill-32" fill="#FFFFFF"></path>
                    <path d="M165.9925,19.5578 C166.4995,24.1788 167.1275,28.3738 167.2885,32.5868 C167.3225,33.4698 165.7645,35.0308 164.7315,35.2388 C157.2165,36.7508 155.7115,41.6598 156.2595,48.4588 C156.6205,52.9388 155.9725,57.5008 155.7885,61.7438 C154.9745,62.1368 154.6985,62.3908 154.4265,62.3848 C143.0835,62.1318 143.1015,62.1288 143.1545,50.8668 C143.1935,42.4908 143.2935,34.1128 143.1205,25.7408 C143.0595,22.7848 144.1165,21.5088 146.9375,21.8818 C150.7255,22.3838 155.6745,20.4358 156.8445,26.8458 C159.6815,24.2028 160.7235,20.0798 165.9925,19.5578" id="Fill-34" fill="#FFFFFF"></path>
                </g>
                <g id="Page-1-Copy" transform="translate(8.000000, 0.000000)">
                    <path d="M263.6409,15.9313 C259.6039,17.8063 258.4239,20.1423 258.4229,23.5723 C258.4219,29.8923 257.8999,36.2123 257.8589,42.5343 C257.8399,45.4633 256.9039,46.7243 253.9389,46.0923 C253.7859,46.0593 253.6219,46.0793 253.4649,46.0693 C244.7069,45.4963 244.5349,45.2203 244.7059,36.6363 C244.8799,27.9373 244.9039,19.2343 244.9089,10.5323 C244.9119,5.8173 244.9969,5.6543 249.5669,5.7693 C250.6739,5.7973 251.7829,5.7843 252.8909,5.7753 C255.6679,5.7513 257.9979,6.3683 258.2989,10.2663 C261.3229,7.2483 262.6969,2.2023 267.4159,3.3483 C270.9179,4.1993 274.0529,6.5603 277.6339,8.3933 C278.0879,7.6193 278.7449,6.3963 279.4999,5.2383 C281.4329,2.2723 283.3469,-0.7387 287.7029,0.1633 C292.3279,1.1213 297.0899,5.1493 297.0989,9.0543 C297.1219,18.5333 296.7089,28.0143 296.4349,37.4933 C296.4179,38.0843 296.0769,39.1803 295.9099,39.1763 C292.5649,39.0873 289.1649,39.1633 285.9149,38.5133 C284.8709,38.3043 283.5369,36.1253 283.5119,34.8243 C283.3939,28.8273 283.7259,22.8233 283.8109,16.8213 C283.8279,15.6473 283.4649,14.4683 283.2129,12.8873 C279.4339,14.2173 278.0769,16.5253 277.9649,19.8223 C277.7569,25.9853 277.5709,32.1493 277.2409,38.3063 C276.9739,43.2923 276.4729,43.6223 271.4329,42.9543 C270.3359,42.8083 269.2549,42.5503 268.1569,42.4213 C264.5869,42.0023 263.5509,40.0333 263.8319,36.5343 C264.2609,31.1833 264.2529,25.7953 264.3229,20.4223 C264.3399,19.1103 263.9379,17.7923 263.6409,15.9313" id="Fill-1" fill="#EF3E23"></path>
                    <path d="M160.5862,97.7766 C160.4062,94.5536 160.4352,91.8766 160.0592,89.2566 C159.6962,86.7336 157.5172,85.8516 155.9662,87.4716 C154.1422,89.3796 152.6962,92.0986 152.2392,94.6706 C152.0222,95.8916 154.2262,97.9996 155.7912,98.9686 C157.9032,100.2766 160.4482,100.8916 162.8202,101.7716 C171.2102,104.8866 173.7942,108.2046 173.4272,115.4276 C173.1152,121.5716 167.6752,128.1646 161.3582,129.8616 C155.6422,131.3986 150.0232,130.7026 144.6312,128.4796 C140.4392,126.7516 138.5882,122.9896 137.6002,118.9006 C137.3612,117.9116 138.2932,116.2466 139.1892,115.4756 C140.3372,114.4866 142.0602,114.1996 143.4192,113.4096 C146.1372,111.8296 147.9982,112.3216 149.6392,115.1146 C151.1742,117.7276 153.6312,119.3556 156.8232,118.4896 C158.0232,118.1646 158.9782,116.9386 160.0442,116.1226 C159.2412,115.0826 158.5812,113.8666 157.5892,113.0576 C156.7742,112.3926 155.5742,112.1886 154.5302,111.8196 C153.1892,111.3466 151.8202,110.9486 150.4862,110.4566 C135.9212,105.0886 133.2882,89.3726 145.3752,79.3986 C147.0072,78.0516 149.1892,76.9836 151.2602,76.6276 C157.5462,75.5476 163.5822,76.8216 169.0842,79.9916 C173.9242,82.7806 175.4792,89.9066 172.4352,94.5466 C171.9552,95.2776 171.0462,96.0076 170.2192,96.1806 C167.1712,96.8186 164.0742,97.2206 160.5862,97.7766" id="Fill-3" fill="#EF3E23"></path>
                    <path d="M338.8192,103.6369 C350.8992,102.9049 352.7572,101.5279 352.2902,93.9079 C352.0232,93.9279 351.6142,93.8419 351.5092,93.9829 C349.3192,96.8919 347.4132,100.3119 342.8442,99.1379 C337.8032,97.8429 333.6302,95.2039 332.3822,89.8919 C330.2792,80.9389 331.2562,71.9519 333.0422,63.0389 C333.1322,62.5859 333.3962,61.7749 333.5422,61.7829 C336.8762,61.9699 340.2172,62.1429 343.5292,62.5449 C345.8432,62.8249 345.9462,64.6279 345.7932,66.5089 C345.4212,71.0819 345.0012,75.6549 344.8042,80.2369 C344.7122,82.4009 345.0892,84.5859 345.2622,86.8769 C349.6562,85.2639 351.3572,82.5999 351.6092,77.7619 C351.8872,72.3989 352.3182,67.0439 352.6162,61.6819 C352.8092,58.2279 354.4112,56.8479 357.8762,57.6669 C360.1722,58.2099 362.5132,58.5559 365.3262,59.0819 C365.4182,61.8719 365.6332,64.5219 365.5702,67.1649 C365.3592,76.0269 365.1372,84.8889 364.7242,93.7419 C364.5852,96.7179 364.1982,99.7659 363.3472,102.6079 C360.2182,113.0509 350.2532,117.4939 340.3172,112.8949 C339.2152,112.3849 338.1082,110.7079 338.0042,109.4879 C337.8382,107.5439 338.5142,105.5289 338.8192,103.6369" id="Fill-5" fill="#EF3E23"></path>
                    <path d="M269.3812,100.2658 C271.1912,98.4378 273.6892,97.0988 274.0032,95.3658 C274.8212,90.8488 274.6822,86.1578 274.9292,81.4418 C268.1752,82.0218 265.6132,90.9098 269.3812,100.2658 M276.3122,104.2638 C275.4332,105.7558 274.6932,107.1038 273.8672,108.3978 C270.9102,113.0358 268.5602,113.7578 263.5052,111.4748 C258.3402,109.1418 255.2692,104.9998 254.4112,99.5248 C253.4192,93.2028 253.8262,86.8958 256.2812,80.8618 C259.5402,72.8518 263.9082,70.3788 272.4942,71.6108 C273.2342,71.7168 274.0032,71.6118 275.0062,71.6028 C275.6992,66.9218 276.5712,62.4498 276.9642,57.9348 C277.2642,54.4838 279.0362,53.7948 282.0262,54.0318 C291.0642,54.7498 290.7282,54.6848 290.1592,63.7368 C289.2972,77.4438 288.9692,91.1838 288.3962,104.9098 C288.3382,106.2968 288.1492,107.6778 288.0272,108.9948 C280.1112,109.8218 278.7992,109.3028 276.3122,104.2638" id="Fill-7" fill="#EF3E23"></path>
                    <path d="M126.178,35.3527 C126.161,32.5237 126.406,30.1517 126.036,27.8797 C125.817,26.5297 124.887,24.8757 123.775,24.2537 C123.152,23.9047 121.029,25.0787 120.4,26.0807 C115.576,33.7577 114.446,42.0497 117.503,50.6137 C118.797,54.2367 122.518,55.3297 126.256,53.4267 C129.176,51.9407 131.825,49.9217 135.248,47.7187 C136.614,50.4437 138.024,53.0167 139.167,55.7027 C139.471,56.4167 139.261,57.7097 138.775,58.3447 C134.686,63.6787 129.905,67.8767 122.541,67.3777 C110.75,66.5787 104.34,60.8047 102.571,49.0477 C101.087,39.1917 102.442,29.7387 107.915,21.2437 C112.667,13.8667 118.213,11.8537 126.656,14.0407 C128.785,14.5927 130.864,15.3907 132.907,16.2227 C140.243,19.2107 140.116,24.6487 138.238,31.7407 C138.017,32.5767 136.795,33.5237 135.882,33.7297 C132.835,34.4157 129.717,34.7887 126.178,35.3527" id="Fill-9" fill="#EF3E23"></path>
                    <path d="M225.888,20.9157 C219.102,21.7667 216.674,30.5287 220.449,39.8147 C222.257,37.9757 224.794,36.6037 225.102,34.8427 C225.891,30.3337 225.689,25.6517 225.888,20.9157 M227.442,43.4547 C226.769,44.8487 226.454,45.5717 226.081,46.2637 C222.37,53.1447 217.648,54.1057 211.493,49.2207 C206.588,45.3267 204.796,39.9807 205.346,34.0437 C205.805,29.0757 206.516,23.9717 208.187,19.3117 C210.534,12.7707 215.833,9.6667 222.728,10.4767 C227.689,11.0597 232.574,12.5187 237.388,13.9397 C238.499,14.2687 239.94,16.0407 239.944,17.1537 C239.978,27.5447 239.732,37.9367 239.558,48.8407 C235.241,48.2327 229.65,50.9627 227.442,43.4547" id="Fill-11" fill="#EF3E23"></path>
                    <path d="M102.3074,125.9933 C107.9524,123.9453 110.1664,115.1663 107.1364,107.8833 C101.3804,109.1353 99.2274,116.8903 102.3074,125.9933 M122.5484,136.2723 C117.7474,134.7963 111.7954,138.2303 110.0044,130.3893 C109.1134,132.0023 108.4784,133.2293 107.7714,134.4153 C104.6824,139.5983 101.7304,140.5103 96.3204,137.7833 C91.7964,135.5023 88.8764,131.7393 88.0654,126.8063 C86.8934,119.6783 87.4224,112.6053 90.5404,105.9373 C93.4084,99.8073 98.2304,96.6883 104.9434,97.4773 C109.9054,98.0603 114.7494,99.6433 119.6464,100.7773 C121.6364,101.2383 122.5174,102.4113 122.4034,104.5163 C122.1224,109.7183 121.7824,114.9263 121.7994,120.1313 C121.8144,125.1643 122.2464,130.1963 122.5484,136.2723" id="Fill-13" fill="#EF3E23"></path>
                    <path d="M313.2757,75.1896 C306.4637,76.1276 304.0437,84.9366 307.8547,94.1336 C309.6557,92.2876 312.1907,90.9056 312.4997,89.1346 C313.2867,84.6246 313.0797,79.9406 313.2757,75.1896 M327.0387,103.4196 C322.8217,102.1236 316.8917,105.5086 315.0587,97.7626 C314.2767,99.1646 313.6927,100.2356 313.0857,101.2946 C309.7597,107.0956 306.3017,108.0806 300.5607,104.6816 C296.5467,102.3046 293.8537,98.7416 293.1227,94.1536 C291.9587,86.8486 292.4077,79.5846 295.8127,72.8636 C298.6967,67.1696 303.3017,63.7356 309.9717,64.7576 C314.9267,65.5166 319.7787,66.9476 324.6767,68.0816 C326.6497,68.5376 327.4827,69.6866 327.4757,71.8006 C327.4427,81.7416 327.5427,91.6826 327.5687,101.6246 C327.5707,102.0646 327.3177,102.5056 327.0387,103.4196" id="Fill-15" fill="#EF3E23"></path>
                    <path d="M53.0384,111.7683 C53.4154,111.0963 53.7564,110.4013 54.1744,109.7553 C57.3634,104.8203 59.9354,103.3533 63.6364,104.3323 C68.7214,105.6783 72.3524,109.7683 72.3364,114.8103 C72.3084,123.1783 72.0984,131.5503 71.7104,139.9093 C71.4964,144.5123 71.1634,144.5793 66.5014,144.0283 C58.5514,143.0893 58.4344,142.8243 58.7264,134.6953 C58.9294,129.0683 58.7894,123.4283 58.8034,117.1793 C54.4084,118.7143 52.5054,120.9703 52.3584,124.6893 C52.1144,130.8453 51.8654,137.0003 51.5684,143.1533 C51.5034,144.5023 51.2294,145.8413 51.0614,147.1073 C38.8454,147.3703 38.8474,147.3703 38.7834,135.8513 C38.7354,127.3173 38.7564,118.7813 38.5834,110.2493 C38.5334,107.7803 39.4164,106.6803 41.8234,106.7573 C42.7724,106.7883 43.7324,107.0073 44.6634,106.9123 C48.4834,106.5243 51.6404,107.1293 53.0384,111.7683" id="Fill-17" fill="#EF3E23"></path>
                    <path d="M235.7943,88.7311 C232.0623,90.8181 230.1223,93.0431 230.0823,96.8771 C230.0163,103.0341 229.6583,109.1891 229.3773,115.3421 C229.3293,116.4061 229.0543,117.4601 228.8363,118.8191 C227.7383,118.8371 226.8433,118.8991 225.9533,118.8591 C216.2763,118.4231 216.3823,118.4201 216.5043,108.8861 C216.6173,100.0371 216.6003,91.1811 216.3723,82.3351 C216.2953,79.3661 217.2853,78.2011 220.1313,78.4191 C220.9203,78.4811 221.7253,78.6701 222.4963,78.5751 C226.3803,78.0971 229.4153,78.9231 230.0533,84.2211 C231.2773,82.4151 232.0403,81.3141 232.7773,80.1991 C234.7283,77.2481 237.1013,75.0971 240.9993,75.8961 C245.1653,76.7491 250.0283,80.9681 250.0343,84.6211 C250.0493,94.2501 249.6273,103.8791 249.3383,113.5081 C249.3213,114.0861 248.9273,115.1601 248.7433,115.1521 C245.3823,115.0171 241.9643,115.0421 238.7083,114.3411 C237.6773,114.1191 236.4343,111.8981 236.3993,110.5631 C236.2413,104.5711 236.5173,98.5701 236.5493,92.5711 C236.5543,91.5091 236.1453,90.4451 235.7943,88.7311" id="Fill-19" fill="#EF3E23"></path>
                    <path d="M199.0306,115.8493 C198.1016,117.5663 197.3476,119.0753 196.4896,120.5223 C193.5026,125.5543 190.0586,126.4223 184.9406,123.4713 C180.8646,121.1203 177.7746,117.8093 177.7476,112.9813 C177.7036,104.9473 178.1996,96.9083 178.5256,88.8733 C178.6396,86.0603 179.9646,85.2453 182.9096,85.6823 C191.7626,86.9943 191.6406,86.8393 190.9476,95.4193 C190.5216,100.6853 190.6176,105.9923 190.4586,112.0823 C195.7796,109.5073 197.1276,105.9763 197.3116,101.6023 C197.5386,96.2383 198.0326,90.8853 198.2956,85.5213 C198.4266,82.8463 199.8226,81.8033 202.2836,82.0983 C205.3706,82.4673 208.4366,83.0103 211.3086,83.4473 C211.1816,93.0273 211.0076,101.9923 210.9776,110.9573 C210.9696,113.6383 211.5766,116.3283 211.4716,118.9983 C211.4326,119.9963 210.2976,121.6423 209.4396,121.8033 C204.3306,122.7583 201.2116,120.9313 199.0306,115.8493" id="Fill-21" fill="#EF3E23"></path>
                    <g id="Group-25" transform="translate(0.000000, 110.379000)">
                        <mask id="mask-4" fill="white">
                            <use xlink:href="#path-3"></use>
                        </mask>
                        <g id="Clip-24"></g>
                        <path d="M21.7098,16.1051 C21.4738,16.0671 21.2388,16.0291 21.0028,15.9921 C20.9038,15.3681 20.9798,14.6351 20.6708,14.1441 C19.8988,12.9161 18.9528,11.7981 18.0768,10.6361 C17.0728,11.7211 15.3878,12.6931 15.1858,13.9121 C14.4168,18.5251 13.9388,23.2131 13.7968,27.8861 C13.7628,29.0351 15.4128,30.2341 16.2888,31.4101 C17.4108,30.4581 19.2368,29.6821 19.5258,28.5221 C20.5398,24.4541 21.0238,20.2541 21.7098,16.1051 M0.2158,27.0581 C-0.4612,20.3901 0.3718,13.7081 3.9208,7.5851 C6.8218,2.5841 11.0418,0.3081 17.0118,1.1151 C30.7298,2.9691 35.4438,8.5971 34.4388,22.4681 C34.3138,24.1921 33.9438,25.9071 33.5848,27.6051 C30.2798,43.1911 18.1328,44.6431 6.6228,38.9351 C2.0088,36.6471 0.9978,31.9561 0.2158,27.0581" id="Fill-23" fill="#EF3E23" mask="url(#mask-4)"></path>
                    </g>
                    <path d="M188.7503,24.6642 C185.1663,26.5632 183.8733,29.6892 184.8213,34.1642 C189.6613,32.5482 190.9913,29.3312 188.7503,24.6642 M184.1253,41.5702 C186.5053,46.2812 186.6233,46.2792 197.1993,41.9222 C202.4533,47.1852 202.0073,50.0382 196.3633,54.3532 C188.4313,60.4182 172.0513,55.6762 170.8333,43.8132 C170.1003,36.6652 170.4863,29.9382 173.7123,23.5302 C176.9233,17.1532 181.1063,15.0812 188.0223,16.3272 C190.1873,16.7172 192.3333,17.3682 194.3933,18.1512 C202.7423,21.3232 204.6833,29.6022 198.1463,35.7942 C195.6543,38.1552 191.9593,39.3002 188.7123,40.7802 C187.4923,41.3362 185.9883,41.2722 184.1253,41.5702" id="Fill-26" fill="#EF3E23"></path>
                    <path d="M74.2078,42.7829 C70.3198,45.0069 69.0468,48.2129 70.1268,52.5009 C74.8118,50.7409 75.9548,48.1889 74.2078,42.7829 M69.2748,59.8789 C71.7948,64.3529 71.7948,64.3529 82.7658,60.1769 C84.8188,62.5389 86.8468,65.0859 85.8888,68.4839 C85.0528,71.4519 77.4488,75.5759 73.5328,75.3869 C65.2088,74.9859 56.8118,72.0389 55.7898,59.6389 C55.2388,52.9649 56.2318,46.7089 59.4508,40.8799 C62.1428,36.0059 66.1648,33.3449 71.9668,34.5039 C74.5878,35.0269 77.2498,35.5639 79.7378,36.5059 C87.8988,39.5949 89.8938,47.6779 83.6218,53.8169 C81.0728,56.3119 77.2068,57.5169 73.8388,59.0919 C72.6308,59.6569 71.1248,59.5839 69.2748,59.8789" id="Fill-28" fill="#EF3E23"></path>
                    <path d="M42.3279,58.0524 C41.8269,54.9064 41.3739,52.0654 40.9209,49.2244 C40.5819,49.1044 40.2439,48.9844 39.9049,48.8644 C39.0909,50.0394 37.8009,51.1244 37.5529,52.4094 C36.8419,56.0934 36.0779,59.8764 36.2199,63.5864 C36.3909,68.0714 38.8519,69.3464 43.0119,67.8554 C43.7489,67.5904 44.3909,67.0564 45.1299,66.8004 C47.2449,66.0674 49.3149,63.2714 51.4429,67.0874 C53.8269,71.3634 53.7969,73.5074 50.7419,76.2734 C45.4749,81.0424 39.5089,81.6014 33.0599,79.3174 C27.0789,77.1984 23.9749,72.8474 23.0919,66.6374 C22.0069,59.0124 22.9049,51.8004 27.1459,45.2314 C29.9829,40.8374 33.9329,38.6294 39.2489,39.8554 C42.3149,40.5624 45.4529,41.2444 48.3079,42.5054 C52.5839,44.3944 53.7669,46.9494 53.1219,51.2004 C52.3719,56.1364 51.5079,56.9634 46.0499,57.7774 C44.8419,57.9574 43.6069,57.9624 42.3279,58.0524" id="Fill-30" fill="#EF3E23"></path>
                    <path d="M18.1287,83.9562 C6.1217,84.6562 5.4837,84.6072 5.3047,73.9022 C5.0907,61.1532 5.8177,48.3762 6.4627,35.6282 C6.7077,30.8032 7.2797,30.6962 12.1027,31.2192 C22.4477,32.3392 20.0407,31.6872 19.6237,40.3062 C19.0057,53.0592 18.7457,65.8292 18.3307,78.5922 C18.2747,80.2972 18.2027,82.0012 18.1287,83.9562" id="Fill-32" fill="#EF3E23"></path>
                    <path d="M165.9925,19.5578 C166.4995,24.1788 167.1275,28.3738 167.2885,32.5868 C167.3225,33.4698 165.7645,35.0308 164.7315,35.2388 C157.2165,36.7508 155.7115,41.6598 156.2595,48.4588 C156.6205,52.9388 155.9725,57.5008 155.7885,61.7438 C154.9745,62.1368 154.6985,62.3908 154.4265,62.3848 C143.0835,62.1318 143.1015,62.1288 143.1545,50.8668 C143.1935,42.4908 143.2935,34.1128 143.1205,25.7408 C143.0595,22.7848 144.1165,21.5088 146.9375,21.8818 C150.7255,22.3838 155.6745,20.4358 156.8445,26.8458 C159.6815,24.2028 160.7235,20.0798 165.9925,19.5578" id="Fill-34" fill="#EF3E23"></path>
                </g>
            </g>
        </g>
    </g>
</svg>